<svg width="60" height="60" viewBox="0 0 60 60" fill="none" xmlns="http://www.w3.org/2000/svg">
<path d="M25.227 27.273C26.4929 28.5388 28.2098 29.25 30 29.25C30.8864 29.25 31.7642 29.0754 32.5831 28.7362C33.4021 28.397 34.1462 27.8998 34.773 27.273C35.3998 26.6462 35.897 25.9021 36.2362 25.0831C36.5754 24.2642 36.75 23.3864 36.75 22.5C36.75 20.7098 36.0388 18.9929 34.773 17.727C33.5071 16.4612 31.7902 15.75 30 15.75C28.2098 15.75 26.4929 16.4612 25.227 17.727C23.9612 18.9929 23.25 20.7098 23.25 22.5C23.25 24.2902 23.9612 26.0071 25.227 27.273ZM30 54.2454C29.8956 54.1261 29.7706 53.9823 29.6269 53.8155C29.1511 53.2633 28.4707 52.459 27.6539 51.4525C26.0197 49.4389 23.8416 46.619 21.6645 43.3922C19.4864 40.164 17.3155 36.5377 15.6907 32.9108C14.0629 29.2773 13 25.6801 13 22.5C13 17.9913 14.7911 13.6673 17.9792 10.4792C21.1673 7.29107 25.4913 5.5 30 5.5C34.5087 5.5 38.8327 7.29107 42.0208 10.4792C45.2089 13.6673 47 17.9913 47 22.5C47 25.6801 45.9371 29.2773 44.3093 32.9108C42.6845 36.5377 40.5136 40.164 38.3355 43.3922C36.1584 46.619 33.9803 49.4389 32.3461 51.4525C31.5293 52.459 30.8489 53.2633 30.3731 53.8155C30.2294 53.9823 30.1044 54.1261 30 54.2454Z" fill="#FFEA00" stroke="white"/>
<ellipse cx="30" cy="22.5" rx="10" ry="10.5" fill="#FFEA00"/>
<path d="M30.5054 10C30.0586 10.0026 29.6122 10.0295 29.168 10.0807C29.0066 10.0999 28.8488 10.1268 28.6911 10.1537C28.4473 10.1921 28.2142 10.2382 27.974 10.292C27.7337 10.3458 27.5795 10.388 27.3895 10.4495C27.1995 10.511 27.1134 10.5456 26.9736 10.5955C23.2804 11.9824 21.3263 15.8128 21.0359 21.8831V21.9868C21.0108 22.4901 21 23.0049 21 23.5236C21.9968 22.3134 23.8075 20.1773 27.7911 20.1773C32.8109 20.1773 35.7152 23.5735 35.7152 29.3479C35.7152 33.8584 33.84 36.7782 30.491 38H30.509C38.7917 38.0153 40 32.3677 40 23.5351C40 14.7025 37.0311 10 30.5054 10ZM26.7943 22.2289C23.5063 22.2289 21.7924 24.9758 21.0574 26.0708C21.0964 27.6187 21.2535 29.1606 21.5271 30.6811L21.5737 30.9039C21.6095 31.0922 21.6597 31.2881 21.7028 31.4533C22.3697 34.0697 23.7286 36.6246 26.6258 36.6246C30.3835 36.6246 31.6958 33.1668 31.6958 29.5439C31.6814 25.4292 30.0966 22.2289 26.7943 22.2289Z" fill="#1E65A6"/>
</svg>
